<?xml version="1.0" encoding="utf-8"?>
<!-- Generator: Adobe Illustrator 22.1.0, SVG Export Plug-In . SVG Version: 6.00 Build 0)  -->
<svg version="1.1" id="Capa_1" xmlns="http://www.w3.org/2000/svg" xmlns:xlink="http://www.w3.org/1999/xlink" x="0px" y="0px"
	 viewBox="0 0 1084.1 1084.1" style="enable-background:new 0 0 1084.1 1084.1;" xml:space="preserve">
<style type="text/css">
	.st0{fill:#FFFFFF;}
</style>
<g>
	<path class="st0" d="M31.1,30.7c341.3,0,682.7,0,1024,0c0,341.3,0,682.7,0,1024c-341.3,0-682.7,0-1024,0
		C31.1,713.4,31.1,372,31.1,30.7z M76.2,887.6c0,7.8-0.3,15.7,0.1,23.5c0.8,19.7,7.5,37.1,22.1,50.9c10,9.4,21.7,16,34.4,20.8
		c30.9,11.9,63.3,15.1,96.1,15.9c47.1,1.2,93.8-3.6,140.5-9.5c10-1.3,20.3-2.6,30.3-1.5c19,2,37.8,5.9,56.8,8.5
		c26.3,3.7,52.7,6.4,79.2,3.6c23.8-2.5,47.4-7,71.3-9.4c28.1-2.9,56.4-5.5,84.7-6.3c17.2-0.5,34.2-2,51.1-4.9
		c31.6-5.3,63.2-10.6,95.3-9.1c25.6,1.3,51.1,4.4,76.7,6c18.1,1.1,36.3,2.2,54.3,1.4c22.2-1,39.6-17.6,43.3-39.6
		c1.3-7.5,1.2-15.2,1.9-22.9c1.3-15.2,3-30.4,4-45.7c0.8-11.1,2-22.3,1-33.3c-1.1-13.5-4.3-26.9-6.5-40.4
		c-3.2-19.5-7.6-38.9-9.2-58.6c-1.9-22.9,3.9-45.3,8.1-67.7c4.1-22.2,8.4-44.5,11.4-66.9c3.8-28.1-0.5-55.7-6.2-83.3
		c-9.6-46.2-15.5-92.9-16.9-140.2c-1.1-39.5-3.6-78.9-5.2-118.3c-1.1-26-1.7-52,3.6-77.7c3.3-15.8,6.3-31.7,5.9-48
		c-0.6-27.6-20.1-52.8-46.8-57.2c-15.1-2.5-30.4-4.4-45.6-4.8c-37.6-1.2-74.9,2.4-112,8c-22.2,3.4-44.5,7-65.6,15
		c-17.2,6.5-34.8,8.4-52.6,6c-22.7-3.1-45.3-7.4-67.8-11.8c-22.1-4.3-43.9-10.7-66.5-10.4c-30.6,0.3-60.9-2.5-91.3-4.7
		c-24.9-1.8-49.4-0.3-73.8,6.2c-31.3,8.3-62.7,14-95.7,9.8c-36.8-4.7-73.9-7-111-9.7c-20.3-1.5-40.5-3.9-60.7,3.5
		c-9.8,3.6-15,9-17.4,18.3c-1,4-1.9,8.1-2.3,12.2c-1.2,13.1-2.6,26.2-3,39.3c-0.4,11.9-0.6,24,0.8,35.8c2.4,20.2,5.5,40.2,5,60.7
		c-1.3,55.5-7.6,110.6-14.2,165.7c-4.8,40.3-10.4,80.7-13.1,121.2c-3.5,51.7-4.8,103.5-6.4,155.3c-1.2,39,0.3,77.9,5.6,116.7
		C73.3,835.7,77.5,861.4,76.2,887.6z"/>
	<path d="M76.2,887.6c1.4-26.1-2.9-51.9-6.3-77.6c-5.2-38.8-6.7-77.7-5.6-116.7c1.6-51.8,2.9-103.6,6.4-155.3
		c2.7-40.5,8.3-80.8,13.1-121.2c6.6-55.1,12.9-110.2,14.2-165.7c0.5-20.5-2.6-40.5-5-60.7c-1.4-11.8-1.2-23.9-0.8-35.8
		c0.4-13.1,1.8-26.2,3-39.3c0.4-4.1,1.2-8.2,2.3-12.2c2.4-9.2,7.6-14.7,17.4-18.3c20.2-7.4,40.5-5,60.7-3.5c37,2.7,74.2,5.1,111,9.7
		c33,4.2,64.4-1.5,95.7-9.8c24.4-6.5,48.9-7.9,73.8-6.2c30.4,2.2,60.7,5.1,91.3,4.7c22.6-0.2,44.4,6.2,66.5,10.4
		c22.5,4.4,45.1,8.7,67.8,11.8c17.8,2.4,35.4,0.5,52.6-6c21.1-8,43.4-11.6,65.6-15c37.1-5.6,74.4-9.2,112-8
		c15.2,0.5,30.5,2.4,45.6,4.8c26.7,4.4,46.2,29.6,46.8,57.2c0.4,16.3-2.7,32.2-5.9,48c-5.3,25.7-4.7,51.7-3.6,77.7
		c1.6,39.4,4.1,78.9,5.2,118.3c1.3,47.3,7.3,93.9,16.9,140.2c5.7,27.5,10,55.2,6.2,83.3c-3,22.4-7.3,44.7-11.4,66.9
		c-4.2,22.4-10,44.9-8.1,67.7c1.6,19.7,6,39.1,9.2,58.6c2.2,13.5,5.4,26.8,6.5,40.4c0.9,11-0.3,22.2-1,33.3
		c-1.1,15.2-2.7,30.4-4,45.7c-0.7,7.6-0.6,15.4-1.9,22.9c-3.7,21.9-21.1,38.6-43.3,39.6c-18.1,0.8-36.3-0.2-54.3-1.4
		c-25.6-1.6-51.1-4.7-76.7-6c-32.1-1.6-63.8,3.8-95.3,9.1c-16.9,2.8-33.9,4.4-51.1,4.9c-28.3,0.8-56.5,3.4-84.7,6.3
		c-23.8,2.4-47.4,6.9-71.3,9.4c-26.5,2.8-52.9,0.1-79.2-3.6c-19-2.7-37.8-6.5-56.8-8.5c-9.9-1-20.3,0.2-30.3,1.5
		c-46.6,5.9-93.4,10.7-140.5,9.5c-32.7-0.9-65.2-4-96.1-15.9c-12.7-4.9-24.4-11.4-34.4-20.8c-14.6-13.8-21.3-31.1-22.1-50.9
		C75.9,903.2,76.2,895.4,76.2,887.6z M121.3,916.6c0,4.5-0.1,8.3,0,12.1c0.3,10.8,3.4,15.6,13.6,19c6.4,2.2,13.1,4.2,19.8,4.9
		c27.3,2.7,54.7,5.2,82.1,7c35.2,2.3,70.5,4,105.8,5.7c28,1.3,55.9,3.1,83.9,3.1c35.8,0,70.7-7.8,105.8-14.2
		c16.9-3.1,33.7-6.8,50.7-8.4c30.1-2.8,59.8,3.1,89.7,5.1c17.2,1.2,34.8,2.7,51.8,0.7c25.2-3,50.1-8.9,75.1-13.5
		c11.6-2.1,23.2-6,34.8-5.8c21.4,0.4,42.8,3.5,64.3,4.8c14.1,0.8,28.3,1.2,42.4,0.4c15.1-0.9,25.7-9.2,29.9-23.9
		c2.3-8.1,3.8-16.6,4-25c0.4-18-4.3-35.3-9.5-52.4c-8.9-29.5-13.2-59.5-10.2-90.2c2-20.2,4.9-40.4,6.3-60.6
		c1.3-19.4,2.5-39,1.4-58.3c-1.1-17.8-5.3-35.5-8.3-53.2c-5.1-30.5-7.9-61.3-4.4-92.1c3-26.9,8.3-53.6,12.4-80.4
		c2.7-17.4,6.3-34.8,7.1-52.4c1.2-26.9-3.7-53.1-13.9-78.1c-9-22.2-11.2-45.1-7.8-68.6c1.6-11.2,3.5-22.4,4.5-33.6
		c1.8-20-5.1-29.5-24.3-34.9c-16.1-4.4-32.6-5.1-49.1-4.4c-36.8,1.6-73.5,4.1-110.3,5.8c-24.1,1.2-48.2,1.8-72.2-3
		c-34.6-7-69.6-11.8-105-13.1c-36.1-1.4-71.3,5.1-106.4,12.2c-28.5,5.7-57.1,9.2-86.3,7.5c-39.9-2.3-79.9-3.4-119.8-5.1
		c-16.3-0.7-32.6-1.6-48.8-3c-11.1-1-22-3.7-33.1-4.6c-20.6-1.6-38.7,6.1-56.6,15.2c-8.5,4.3-13.9,10.6-15.2,19.7
		c-1.9,13.5-3.8,27.1-3.8,40.6c0,19.5,2.3,38.9,2.5,58.4c0.4,40.5,1.4,81,6.2,121.2c3.2,27.1,7.5,54.1,10.4,81.2
		c2.9,27.1,0,53.3-12.6,78.3c-5.9,11.7-9.6,24.8-12.5,37.7c-5.4,23.8-2.2,47.7,0.3,71.6c2.1,19.1,4,38.2,1.8,57.3
		c-3,25.1-6.6,50.2-9.8,75.3c-3.8,29.9-2.9,59.5,6.3,88.5C118.7,886.1,121.9,901.3,121.3,916.6z"/>
	<path class="st0" d="M121.3,916.6c0.6-15.2-2.6-30.5-7.4-45.5c-9.2-29-10.1-58.6-6.3-88.5c3.2-25.1,6.8-50.2,9.8-75.3
		c2.3-19.1,0.3-38.3-1.8-57.3c-2.6-23.9-5.8-47.9-0.3-71.6c2.9-12.9,6.6-26,12.5-37.7c12.6-25,15.5-51.2,12.6-78.3
		c-2.9-27.1-7.2-54.1-10.4-81.2c-4.8-40.3-5.8-80.7-6.2-121.2c-0.2-19.5-2.5-38.9-2.5-58.4c0-13.6,1.9-27.2,3.8-40.6
		c1.3-9,6.7-15.4,15.2-19.7c17.9-9.1,36.1-16.8,56.6-15.2c11.1,0.9,22,3.6,33.1,4.6c16.2,1.4,32.5,2.3,48.8,3
		c39.9,1.8,79.9,2.9,119.8,5.1c29.2,1.7,57.9-1.8,86.3-7.5c35.1-7,70.3-13.5,106.4-12.2c35.4,1.3,70.3,6.1,105,13.1
		c24,4.9,48.1,4.2,72.2,3c36.8-1.8,73.5-4.3,110.3-5.8c16.5-0.7,33,0,49.1,4.4c19.2,5.3,26,14.9,24.3,34.9
		c-1,11.3-2.9,22.4-4.5,33.6c-3.4,23.6-1.2,46.4,7.8,68.6c10.2,25,15.1,51.3,13.9,78.1c-0.8,17.5-4.4,34.9-7.1,52.4
		c-4.1,26.8-9.4,53.5-12.4,80.4c-3.5,30.8-0.7,61.5,4.4,92.1c3,17.7,7.2,35.4,8.3,53.2c1.2,19.4,0,38.9-1.4,58.3
		c-1.4,20.3-4.3,40.4-6.3,60.6c-3,30.8,1.3,60.7,10.2,90.2c5.2,17.1,9.9,34.4,9.5,52.4c-0.2,8.4-1.7,16.9-4,25
		c-4.2,14.7-14.8,23-29.9,23.9c-14.1,0.8-28.3,0.5-42.4-0.4c-21.4-1.3-42.8-4.4-64.3-4.8c-11.6-0.2-23.2,3.6-34.8,5.8
		c-25,4.6-49.9,10.6-75.1,13.5c-17,2-34.6,0.5-51.8-0.7c-29.9-2.1-59.6-7.9-89.7-5.1c-17,1.6-33.8,5.3-50.7,8.4
		c-35.1,6.4-70,14.2-105.8,14.2c-28,0-56-1.8-83.9-3.1c-35.3-1.7-70.6-3.4-105.8-5.7c-27.4-1.8-54.8-4.3-82.1-7
		c-6.7-0.7-13.4-2.7-19.8-4.9c-10.2-3.4-13.3-8.2-13.6-19C121.2,924.9,121.3,921,121.3,916.6z M799.7,542.6
		c68.2-46.4,100.8-110,85.7-192.3c-13.5-73.6-58.9-123.6-131.3-142.4c-90.4-23.5-160,10.7-210.4,87.7c-29-49.3-71.1-81.5-128.2-91.7
		c-57-10.2-108.3,3.7-152.4,41.3c-39.3,33.6-61.2,76.9-63.5,128.5c-3.3,73.4,28.6,129.2,89.2,168.9c-68.4,46.6-101.1,110.2-86,192.5
		c13.5,73.6,58.9,123.6,131.3,142.4c90.4,23.5,160-10.7,210-87c48.3,74.3,115.9,108.7,204.3,88.5C821,862.4,868.1,814.4,884,741.7
		C902.5,657,870.1,591,799.7,542.6z"/>
	<path d="M799.7,542.6C870.1,591,902.5,657,884,741.7c-15.9,72.7-63,120.7-135.5,137.2c-88.4,20.2-156-14.2-204.3-88.5
		c-50,76.3-119.7,110.5-210,87c-72.4-18.8-117.8-68.8-131.3-142.4c-15.1-82.3,17.6-145.9,86-192.5c-60.6-39.7-92.5-95.5-89.2-168.9
		c2.3-51.6,24.2-94.9,63.5-128.5c44-37.6,95.4-51.5,152.4-41.3c57.1,10.2,99.2,42.4,128.2,91.7c50.4-77,120.1-111.1,210.4-87.7
		c72.4,18.8,117.8,68.8,131.3,142.4C900.4,432.6,867.8,496.2,799.7,542.6z M543.3,428.7c-62.9-0.1-113,50.3-114.2,111.6
		c-1.3,64.2,50,115.9,112.4,116.3c64,0.4,115.7-50.1,115.7-112.5C657.1,479.8,606.7,428.7,543.3,428.7z M739.4,605.8
		c-22.5,63.7-65.2,107.5-128.1,131.5c10.4,32.7,48.1,68.6,100,65.9c48.8-2.6,89.3-39.7,95.5-87.3
		C813.1,667.3,784.5,620.3,739.4,605.8z M739.8,479.9c30.6-8.3,69.9-44.9,67.8-99.1c-2-52.1-41.3-93.1-95-97.5
		c-48.8-3.9-88.5,28.9-100.6,64.1C675.1,371.7,717.8,415.9,739.8,479.9z M346.3,607.4c-32.5,10.4-68.6,49.2-64.7,101.1
		c4,52.7,45.4,92.5,97.4,94.6c52,2.1,88.9-34.8,98.1-64.8C413.2,715.1,369.5,671.4,346.3,607.4z M345.8,478.7
		c22.8-64.7,66.5-109,131-132.6c-13.9-36.9-56-69.1-108.1-62.2c-47.1,6.2-84.6,46.8-87.2,95.2C278.8,429.8,313.1,467.7,345.8,478.7z
		"/>
	<path class="st0" d="M543.3,428.7c63.4,0,113.9,51.1,113.9,115.4c0,62.4-51.6,112.9-115.7,112.5c-62.3-0.4-113.6-52.2-112.4-116.3
		C430.3,479,480.4,428.6,543.3,428.7z"/>
	<path class="st0" d="M739.4,605.8c45.1,14.6,73.7,61.6,67.4,110c-6.2,47.7-46.7,84.8-95.5,87.3c-51.9,2.7-89.6-33.1-100-65.9
		C674.2,713.3,716.9,669.5,739.4,605.8z"/>
	<path class="st0" d="M739.8,479.9c-22-64-64.7-108.1-127.8-132.5c12.1-35.2,51.8-68,100.6-64.1c53.6,4.3,93,45.4,95,97.5
		C809.7,434.9,770.4,471.5,739.8,479.9z"/>
	<path class="st0" d="M346.3,607.4c23.2,64,66.8,107.7,130.8,131c-9.1,30-46,66.9-98.1,64.8c-52-2.1-93.4-41.9-97.4-94.6
		C277.7,656.6,313.8,617.8,346.3,607.4z"/>
	<path class="st0" d="M345.8,478.7c-32.7-11-67-48.8-64.3-99.6c2.6-48.4,40.1-89,87.2-95.2c52.1-6.9,94.2,25.3,108.1,62.2
		C412.3,369.7,368.6,413.9,345.8,478.7z"/>
</g>
</svg>
